<svg width="42" height="12" viewBox="0 0 42 12" fill="none" xmlns="http://www.w3.org/2000/svg">
<path fill-rule="evenodd" clip-rule="evenodd" d="M5.40407 0.799805L0.748657 11.0991H6.32182L7.01271 9.45696H8.59199L9.28292 11.0991H15.4174V9.84576L15.964 11.0991H19.1372L19.6839 9.81926V11.0991H32.442L33.9933 9.49957L35.4459 11.0991L41.9987 11.1123L37.3286 5.9782L41.9987 0.799805H35.5475L34.0374 2.36977L32.6305 0.799805H18.7514L17.5596 3.45816L16.3398 0.799805H10.7783V2.01049L10.1596 0.799805H5.40407ZM24.4556 2.26235H31.7819L34.0227 4.68209L36.3356 2.26235H38.5764L35.1718 5.97677L38.5764 9.64837H36.234L33.9933 7.2005L31.6684 9.64837H24.4556V2.26235ZM26.2648 5.14163V3.79253V3.79125H30.8362L32.8308 5.94884L30.7478 8.11819H26.2648V6.64536H30.2616V5.14163H26.2648ZM6.48238 2.26235H9.19903L12.2869 9.24632V2.26235H15.2629L17.648 7.26981L19.8461 2.26235H22.8072V9.65272H21.0054L20.9907 3.86164L18.3639 9.65272H16.7521L14.1107 3.86164V9.65272H10.4041L9.70138 7.99589H5.9049L5.20366 9.65129H3.2177L6.48238 2.26235ZM6.55322 6.46428L7.804 3.51279L9.0533 6.46428H6.55322Z" fill="#434343"/>
</svg>
