<svg width="42" height="18" viewBox="0 0 42 18" fill="none" xmlns="http://www.w3.org/2000/svg">
<path fill-rule="evenodd" clip-rule="evenodd" d="M5.74836 3.27161C6.52057 3.3377 7.29277 2.87509 7.77538 2.2886C8.25001 1.68558 8.5637 0.876078 8.48325 0.0500488C7.79951 0.0830923 6.95495 0.5126 6.47229 1.11561C6.02988 1.63602 5.6518 2.47863 5.74836 3.27161ZM14.9344 13.9111V1.03301H19.64C22.0693 1.03301 23.7665 2.75121 23.7665 5.2624C23.7665 7.77359 22.0371 9.50825 19.5757 9.50825H16.881V13.9111H14.9344ZM8.47511 3.42866C7.79485 3.38843 7.17407 3.63874 6.67269 3.84095C6.35 3.97103 6.07679 4.08124 5.86894 4.08124C5.63564 4.08124 5.35115 3.96512 5.03166 3.8348C4.6131 3.66408 4.13454 3.46883 3.6327 3.47822C2.48247 3.49475 1.41263 4.16385 0.825391 5.22941C-0.381142 7.36066 0.511702 10.5161 1.67804 12.2509C2.24917 13.1099 2.93291 14.0516 3.83384 14.0186C4.23019 14.0033 4.5153 13.879 4.81031 13.7504C5.15002 13.6024 5.50293 13.4486 6.05391 13.4486C6.58581 13.4486 6.92329 13.5984 7.24723 13.7422C7.55522 13.8789 7.85104 14.0101 8.29009 14.002C9.22318 13.9855 9.81042 13.143 10.3815 12.2839C10.9978 11.3619 11.2687 10.462 11.3098 10.3254L11.3146 10.3096C11.3136 10.3086 11.306 10.3051 11.2926 10.2987C11.0865 10.2019 9.51182 9.46153 9.49668 7.47631C9.48153 5.80993 10.7457 4.9657 10.9448 4.83277C10.9568 4.82472 10.965 4.81927 10.9687 4.81643C10.1644 3.59387 8.90949 3.4617 8.47511 3.42866ZM27.3221 14.0104C28.5447 14.0104 29.6789 13.3743 30.1937 12.3666H30.234V13.9113H32.0358V7.50112C32.0358 5.64251 30.5878 4.44477 28.3597 4.44477C26.2924 4.44477 24.7641 5.65903 24.7078 7.32767H26.4614C26.6062 6.53469 27.3221 6.01428 28.3034 6.01428C29.4939 6.01428 30.1616 6.58425 30.1616 7.63329V8.34373L27.7323 8.49243C25.472 8.63283 24.2493 9.5828 24.2493 11.2349C24.2493 12.9035 25.5122 14.0104 27.3221 14.0104ZM27.8448 12.482C26.8071 12.482 26.1475 11.9698 26.1475 11.1851C26.1475 10.3756 26.783 9.90472 27.9976 9.83034L30.1614 9.68993V10.4168C30.1614 11.6229 29.164 12.482 27.8448 12.482ZM38.0122 14.4149C37.232 16.67 36.3392 17.4134 34.4408 17.4134C34.296 17.4134 33.8134 17.3969 33.7008 17.3638V15.8191C33.8214 15.8357 34.119 15.8522 34.2719 15.8522C35.1326 15.8522 35.6152 15.4804 35.9128 14.514L36.0898 13.944L32.7918 4.56837H34.8269L37.1194 12.1763H37.1596L39.4521 4.56837H41.4309L38.0122 14.4149ZM16.8809 2.71811H19.1251C20.8143 2.71811 21.7796 3.64327 21.7796 5.27057C21.7796 6.89793 20.8143 7.83132 19.1171 7.83132H16.8809V2.71811Z" fill="#434343"/>
</svg>
