<svg width="38" height="24" viewBox="0 0 38 24" fill="none" xmlns="http://www.w3.org/2000/svg">
<path fill-rule="evenodd" clip-rule="evenodd" d="M18.9819 20.8114C17.0243 22.5252 14.485 23.5598 11.7102 23.5598C5.51882 23.5598 0.499756 18.4088 0.499756 12.0548C0.499756 5.70076 5.51882 0.549805 11.7102 0.549805C14.485 0.549805 17.0243 1.58441 18.9819 3.29821C20.9395 1.58441 23.4788 0.549863 26.2535 0.549863C32.4449 0.549863 37.464 5.70082 37.464 12.0548C37.464 18.4089 32.4449 23.5598 26.2535 23.5598C23.4788 23.5598 20.9394 22.5252 18.9819 20.8114Z" fill="#292929"/>
<path fill-rule="evenodd" clip-rule="evenodd" d="M18.981 20.8114C21.3913 18.7012 22.9198 15.5612 22.9198 12.0548C22.9198 8.54841 21.3913 5.40841 18.981 3.29815C20.9385 1.58436 23.4778 0.549805 26.2526 0.549805C32.444 0.549805 37.463 5.70076 37.463 12.0548C37.463 18.4088 32.444 23.5598 26.2526 23.5598C23.4778 23.5598 20.9385 22.5252 18.981 20.8114Z" fill="#A9A9A9"/>
<path fill-rule="evenodd" clip-rule="evenodd" d="M18.9795 20.8112C21.3899 18.701 22.9183 15.561 22.9183 12.0546C22.9183 8.5483 21.3899 5.4083 18.9795 3.2981C16.5691 5.4083 15.0407 8.5483 15.0407 12.0546C15.0407 15.561 16.5691 18.701 18.9795 20.8112Z" fill="#848484"/>
</svg>
