<svg width="12" height="21" viewBox="0 0 12 21" fill="none" xmlns="http://www.w3.org/2000/svg">
<path d="M2.64648 5.52825V0H7.03741V1.05709C7.03741 3.5263 5.07138 5.52825 2.64648 5.52825Z" fill="#292929"/>
<path d="M11.4045 7.20304L0.0179798 8.81813L0 5.94615L11.3865 4.33105L11.4045 7.20304Z" fill="#292929"/>
<path d="M11.4306 11.3515L0.0441023 12.9666L0.026123 10.0946L11.4127 8.47949L11.4306 11.3515Z" fill="#292929"/>
<path d="M10.7937 19.985C10.7937 19.985 8.75806 20.7436 6.88194 20.5239C4.47502 20.2413 2.49414 18.5235 2.49414 16.0559V6.57471H6.55909V15.3379C6.55909 16.5861 7.85674 17.0772 9.13876 16.84C9.58356 16.758 10.8687 16.3011 10.8687 16.3011L10.7937 19.985Z" fill="#292929"/>
</svg>
