<svg width="30" height="30" viewBox="0 0 30 30" fill="none" xmlns="http://www.w3.org/2000/svg">
<path d="M13.4084 6.24791C11.9922 6.24791 10.6077 6.66788 9.43014 7.45471C8.25256 8.24155 7.33474 9.35991 6.79276 10.6684C6.25078 11.9768 6.10898 13.4166 6.38528 14.8057C6.66158 16.1947 7.34357 17.4706 8.34502 18.4721C9.34647 19.4735 10.6224 20.1555 12.0114 20.4318C13.4005 20.7081 14.8403 20.5663 16.1487 20.0243C17.4572 19.4824 18.5756 18.5645 19.3624 17.387C20.1492 16.2094 20.5692 14.8249 20.5692 13.4087C20.5691 11.5096 19.8146 9.68826 18.4717 8.34538C17.1288 7.0025 15.3076 6.24803 13.4084 6.24791Z" stroke="#434343" stroke-width="1.5" stroke-miterlimit="10"/>
<path d="M18.749 18.751L23.75 23.752" stroke="#434343" stroke-width="1.5" stroke-miterlimit="10" stroke-linecap="round"/>
</svg>
